<svg width="34" height="34" viewBox="0 0 34 34" fill="none" xmlns="http://www.w3.org/2000/svg">
<path d="M23.4814 16.1927V17.8077H20.2408V19.4333H10.5295V21.0483H15.3852V22.6633H17.0002V24.2889H18.6258V25.9039H25.0964V27.5189H26.722V29.1446H28.337V30.7596H29.952V24.2889H31.5777V22.6633H33.1927V16.1927H31.5777V14.5671H29.952V12.9521H26.722V8.09644H25.0964V16.1927H23.4814Z" fill="#FFFDFA"/>
<path d="M25.0964 6.4707H23.4814V8.09633H25.0964V6.4707Z" fill="#FFFDFA"/>
<path d="M21.8557 11.3369H18.6257V14.5669H21.8557V11.3369Z" fill="#FFFDFA"/>
<path d="M23.4813 4.85571H20.2407V6.47071H23.4813V4.85571Z" fill="#FFFDFA"/>
<path d="M15.3852 11.3369H12.1445V14.5669H15.3852V11.3369Z" fill="#FFFDFA"/>
<path d="M10.5294 21.0483H8.90381V22.6633H10.5294V21.0483Z" fill="#FFFDFA"/>
<path d="M20.2407 3.24072H7.28882V4.85572H20.2407V3.24072Z" fill="#FFFDFA"/>
<path d="M7.28883 19.4331H5.67383V25.9037H7.28883V24.2887H8.90383V22.6631H7.28883V19.4331Z" fill="#FFFDFA"/>
<path d="M8.90383 11.3369H5.67383V14.5669H8.90383V11.3369Z" fill="#FFFDFA"/>
<path d="M7.28896 4.85571H4.04834V6.47071H7.28896V4.85571Z" fill="#FFFDFA"/>
<path d="M5.67397 17.8076H4.04834V19.4332H5.67397V17.8076Z" fill="#FFFDFA"/>
<path d="M4.04835 16.1926H2.43335V17.8076H4.04835V16.1926Z" fill="#FFFDFA"/>
<path d="M4.04835 6.4707H2.43335V8.09633H4.04835V6.4707Z" fill="#FFFDFA"/>
<path d="M2.43324 8.09644H0.807617V16.1927H2.43324V8.09644Z" fill="#FFFDFA"/>
</svg>
