<svg width="25" height="25" viewBox="0 0 25 25" fill="none" xmlns="http://www.w3.org/2000/svg">
<g clip-path="url(#clip0_2021_14)">
<path d="M25 2.38281H23.8047V22.6172H25V2.38281Z" fill="#222222"/>
<path d="M23.8047 22.6172H22.6172V23.8125H23.8047V22.6172Z" fill="#222222"/>
<path d="M23.8047 1.1875H22.6172V2.38281H23.8047V1.1875Z" fill="#222222"/>
<path d="M22.6172 3.57031H21.4219V21.4297H22.6172V3.57031Z" fill="#222222"/>
<path d="M22.6172 23.8125H2.375V25H22.6172V23.8125Z" fill="#222222"/>
<path d="M21.4219 21.4297H3.57031V22.6172H21.4219V21.4297Z" fill="#222222"/>
<path d="M17.8516 11.9062H16.6641V10.7109H14.2813V11.9062H13.0938V10.7109H10.7109V17.8594H13.0938V14.2891H14.2813V13.0938H15.4766V14.2891H16.6641V17.8594H19.0469V13.0938H17.8516V11.9062Z" fill="#222222"/>
<path d="M8.32812 10.7109H5.94531V17.8594H8.32812V10.7109Z" fill="#222222"/>
<path d="M8.32812 7.14062H5.94531V9.52344H8.32812V7.14062Z" fill="#222222"/>
<path d="M21.4219 2.38281H3.57031V3.57031H21.4219V2.38281Z" fill="#222222"/>
<path d="M22.6172 0H2.375V1.1875H22.6172V0Z" fill="#222222"/>
<path d="M3.57031 3.57031H2.375V21.4297H3.57031V3.57031Z" fill="#222222"/>
<path d="M2.375 22.6172H1.1875V23.8125H2.375V22.6172Z" fill="#222222"/>
<path d="M2.375 1.1875H1.1875V2.38281H2.375V1.1875Z" fill="#222222"/>
<path d="M1.1875 2.38281H0V22.6172H1.1875V2.38281Z" fill="#222222"/>
</g>
<defs>
<clipPath id="clip0_2021_14">
<rect width="25" height="25" fill="white"/>
</clipPath>
</defs>
</svg>
