<svg width="28" height="28" viewBox="0 0 28 28" fill="none" xmlns="http://www.w3.org/2000/svg">
<g clip-path="url(#clip0_2020_1476)">
<path d="M27.9999 10.6663H26.6699V17.3338H27.9999V10.6663Z" fill="#FFFDFA"/>
<path d="M26.6698 17.3337H25.3311V20.0025H26.6698V17.3337Z" fill="#FFFDFA"/>
<path d="M26.6698 7.99756H25.3311V10.6663H26.6698V7.99756Z" fill="#FFFDFA"/>
<path d="M25.331 20.0024H24.001V22.6624H25.331V20.0024Z" fill="#FFFDFA"/>
<path d="M25.331 5.32874H24.001V7.99749H25.331V5.32874Z" fill="#FFFDFA"/>
<path d="M24.0009 22.6625H22.6621V24.0012H24.0009V22.6625Z" fill="#FFFDFA"/>
<path d="M24.0009 3.99878H22.6621V5.32878H24.0009V3.99878Z" fill="#FFFDFA"/>
<path d="M22.6629 24.0012H20.0029V25.3312H22.6629V24.0012Z" fill="#FFFDFA"/>
<path d="M21.3329 10.6662H20.0029V9.33623H11.9966V6.66748H10.6666V7.99748H9.3366V9.33623H7.99785V10.6662H6.66785V11.9962H5.3291V13.335H6.66785V14.665H7.99785V16.0037H9.3366V17.3337H10.6666V18.6637H11.9966V16.0037H17.3341V17.3337H18.6641V18.6637H17.3341V20.0025H16.0041V21.3325H18.6641V20.0025H21.3329V18.6637H22.6629V11.9962H21.3329V10.6662Z" fill="#FFFDFA"/>
<path d="M22.6629 2.6687H20.0029V3.9987H22.6629V2.6687Z" fill="#FFFDFA"/>
<path d="M20.0027 25.3313H17.334V26.67H20.0027V25.3313Z" fill="#FFFDFA"/>
<path d="M20.0027 1.32996H17.334V2.66871H20.0027V1.32996Z" fill="#FFFDFA"/>
<path d="M17.3335 26.67H10.666V28H17.3335V26.67Z" fill="#FFFDFA"/>
<path d="M17.3335 0H10.666V1.33H17.3335V0Z" fill="#FFFDFA"/>
<path d="M10.6658 25.3313H7.99707V26.67H10.6658V25.3313Z" fill="#FFFDFA"/>
<path d="M10.6658 1.32996H7.99707V2.66871H10.6658V1.32996Z" fill="#FFFDFA"/>
<path d="M7.99785 24.0012H5.3291V25.3312H7.99785V24.0012Z" fill="#FFFDFA"/>
<path d="M7.99785 2.6687H5.3291V3.9987H7.99785V2.6687Z" fill="#FFFDFA"/>
<path d="M5.32902 22.6625H3.99902V24.0012H5.32902V22.6625Z" fill="#FFFDFA"/>
<path d="M5.32902 3.99878H3.99902V5.32878H5.32902V3.99878Z" fill="#FFFDFA"/>
<path d="M3.99895 20.0024H2.66895V22.6624H3.99895V20.0024Z" fill="#FFFDFA"/>
<path d="M3.99895 5.32874H2.66895V7.99749H3.99895V5.32874Z" fill="#FFFDFA"/>
<path d="M2.66883 17.3337H1.33008V20.0025H2.66883V17.3337Z" fill="#FFFDFA"/>
<path d="M2.66883 7.99756H1.33008V10.6663H2.66883V7.99756Z" fill="#FFFDFA"/>
<path d="M1.33 10.6663H0V17.3338H1.33V10.6663Z" fill="#FFFDFA"/>
</g>
<defs>
<clipPath id="clip0_2020_1476">
<rect width="28" height="28" fill="white"/>
</clipPath>
</defs>
</svg>
