<svg width="221" height="70" viewBox="0 0 221 70" fill="none" xmlns="http://www.w3.org/2000/svg">
<g clip-path="url(#clip0_2023_984)">
<path d="M44.0847 8.17318C39.7352 5.42752 34.6554 4.03711 28.9894 4.03711C23.3235 4.03711 18.2854 5.43711 13.9358 8.19875C9.58949 10.9572 6.16559 14.8759 3.76021 19.843C1.37085 24.7782 0.160156 30.5188 0.160156 36.905C0.160156 43.2913 1.37085 49.0927 3.76021 54.0566C6.16559 59.0557 9.5959 63.0032 13.955 65.7936C18.3206 68.584 23.378 70 28.9894 70C34.6009 70 39.6583 68.584 44.0239 65.7936C48.383 63.0064 51.8133 59.0557 54.2187 54.0598C56.608 49.0927 57.8187 43.3233 57.8187 36.9082C57.8187 30.4933 56.6144 24.7367 54.2411 19.8015C51.8517 14.8312 48.4342 10.9188 44.0847 8.17318ZM38.9825 58.5251C36.1223 60.526 32.7625 61.5393 28.9894 61.5393C25.2164 61.5393 21.8982 60.526 19.0412 58.5251C16.165 56.5114 13.8942 53.6187 12.2895 49.9237C10.6657 46.184 9.84572 41.805 9.84572 36.9082C9.84572 32.0114 10.6593 27.6997 12.2671 24.0047C13.8558 20.3545 16.117 17.4905 18.9932 15.4928C21.8534 13.5047 25.2164 12.4978 28.9894 12.4978C32.7625 12.4978 36.1287 13.4983 38.9889 15.4704C41.8619 17.4522 44.1263 20.3097 45.715 23.9599C47.3228 27.6549 48.1364 32.0114 48.1364 36.9082C48.1364 41.805 47.3196 46.2224 45.7118 49.9493C44.1231 53.6315 41.8587 56.5178 38.9825 58.5283V58.5251Z" fill="#222222"/>
<path d="M97.1375 26.4179C96.7275 25.8713 96.2631 25.328 95.7442 24.7878C94.1492 23.1321 92.1505 21.7512 89.8028 20.6805C87.4391 19.6033 84.8928 19.0567 82.2376 19.0567C78.4389 19.0567 74.8933 20.0732 71.7 22.0773C68.51 24.0814 65.9348 27.038 64.0483 30.8672C62.1746 34.6676 61.2266 39.2032 61.2266 44.3494C61.2266 49.4955 62.1586 54.2261 64.0003 58.0681C65.858 61.9452 68.4171 64.9338 71.6104 66.9539C74.8036 68.974 78.3781 70 82.2408 70C84.8736 70 87.4103 69.4279 89.7772 68.3028C92.1313 67.1841 94.1427 65.6978 95.7538 63.8854C96.2695 63.3037 96.7339 62.7092 97.1439 62.1051V69.0667H106.336V0.156738H97.1439V26.4179H97.1375ZM95.1132 35.6073C96.4552 38.0238 97.1375 40.6032 97.1375 43.2818V45.2891C97.1375 48.1402 96.4424 50.8347 95.0684 53.2959C93.6879 55.7699 91.9103 57.7612 89.7804 59.2124C87.6889 60.6411 85.5718 61.3635 83.4867 61.3635C81.0109 61.3635 78.7848 60.7147 76.8727 59.4297C74.951 58.1416 73.42 56.2174 72.3246 53.7115C71.2068 51.1576 70.6399 48.0379 70.6399 44.442C70.6399 40.8462 71.2068 37.6914 72.3246 35.1503C73.42 32.6603 74.9478 30.7586 76.8663 29.5024C78.7816 28.2462 81.0109 27.607 83.4899 27.607C85.6359 27.607 87.7818 28.3293 89.8733 29.7581C92.0032 31.2124 93.768 33.1813 95.1164 35.6073H95.1132Z" fill="#222222"/>
<path d="M145.825 26.4179C145.415 25.8713 144.951 25.328 144.432 24.7878C142.837 23.1321 140.839 21.7512 138.491 20.6805C136.127 19.6033 133.581 19.0567 130.926 19.0567C127.127 19.0567 123.581 20.0732 120.388 22.0773C117.198 24.0814 114.623 27.038 112.736 30.8672C110.863 34.6676 109.915 39.2032 109.915 44.3494C109.915 49.4955 110.847 54.2261 112.688 58.0681C114.546 61.9452 117.105 64.9338 120.298 66.9539C123.492 68.974 127.066 70 130.929 70C133.562 70 136.098 69.4279 138.465 68.3028C140.819 67.1841 142.831 65.6978 144.442 63.8854C144.957 63.3037 145.422 62.7092 145.832 62.1051V69.0667H155.024V0.156738H145.832V26.4179H145.825ZM143.801 35.6073C145.143 38.0238 145.825 40.6032 145.825 43.2818V45.2891C145.825 48.1402 145.13 50.8347 143.756 53.2959C142.376 55.7699 140.598 57.7612 138.468 59.2124C136.377 60.6411 134.26 61.3635 132.175 61.3635C129.699 61.3635 127.473 60.7147 125.561 59.4297C123.639 58.1416 122.108 56.2174 121.013 53.7115C119.895 51.1576 119.328 48.0379 119.328 44.442C119.328 40.8462 119.895 37.6914 121.013 35.1503C122.108 32.6603 123.636 30.7586 125.554 29.5024C127.47 28.2462 129.699 27.607 132.178 27.607C134.324 27.607 136.47 28.3293 138.561 29.7581C140.691 31.2124 142.456 33.1813 143.804 35.6073H143.801Z" fill="#222222"/>
<path d="M191.244 21.2046C188.327 19.779 184.861 19.0566 180.953 19.0566C177.046 19.0566 173.577 19.7694 170.544 21.1726C167.476 22.595 165.061 24.6119 163.36 27.1722C161.653 29.742 160.788 32.7306 160.788 36.058V37.0105H170.07V36.058C170.07 33.2995 170.996 31.1932 172.898 29.6142C174.826 28.016 177.523 27.2041 180.909 27.2041C184.294 27.2041 186.84 28.0544 188.631 29.7324C190.428 31.4169 191.299 33.779 191.299 36.9498V38.7141H178.183C174.432 38.7141 171.079 39.3566 168.216 40.6224C165.304 41.9105 163.024 43.774 161.441 46.1616C159.853 48.5525 159.049 51.3621 159.049 54.5105C159.049 57.6589 159.789 60.3278 161.249 62.642C162.71 64.9562 164.788 66.7685 167.431 68.031C170.035 69.2776 173.113 69.9073 176.575 69.9073C180.037 69.9073 183.058 69.0539 186.004 67.3758C188.061 66.2027 189.848 64.7484 191.344 63.0351V69.0635H200.536V36.8603C200.536 33.2836 199.726 30.1128 198.124 27.4343C196.516 24.7429 194.204 22.6493 191.248 21.2046H191.244ZM191.433 46.6411V47.5584C191.433 50.0388 190.745 52.3977 189.39 54.5648C188.022 56.7511 186.165 58.5251 183.874 59.8356C181.591 61.1429 179.121 61.8046 176.533 61.8046C174.91 61.8046 173.455 61.4817 172.213 60.8393C170.98 60.2032 170.054 59.3402 169.381 58.1959C168.712 57.058 168.372 55.7283 168.372 54.242C168.372 51.8096 169.25 49.9909 171.06 48.6835C172.94 47.3251 175.681 46.6347 179.211 46.6347H191.433V46.6411Z" fill="#222222"/>
<path d="M220.769 58.5538H210.238V69.0634H220.769V58.5538Z" fill="#222222"/>
<path d="M67.7695 17.0942H28.502C26.7932 17.0942 25.408 18.4766 25.408 20.1819V28.1184C25.408 29.8237 26.7932 31.2061 28.502 31.2061H67.7695C69.4782 31.2061 70.8635 29.8237 70.8635 28.1184V20.1819C70.8635 18.4766 69.4782 17.0942 67.7695 17.0942Z" fill="#467AFC"/>
<path d="M34.6429 22.2371H33.6084C33.4995 21.8248 33.3297 21.486 33.0959 21.227C32.8621 20.9649 32.5034 20.8371 32.0167 20.8371C31.5298 20.8371 31.1487 20.9681 30.8572 21.227C30.5626 21.4891 30.3512 21.8535 30.2199 22.3202C30.0885 22.7869 30.0245 23.327 30.0245 23.9344C30.0245 24.9636 30.1942 25.7371 30.537 26.2517C30.8797 26.7663 31.3729 27.0252 32.0199 27.0252C32.529 27.0252 32.907 26.8654 33.1536 26.5458C33.4002 26.2261 33.5796 25.7595 33.6885 25.1426H34.723C34.6205 26.0631 34.3323 26.7567 33.8518 27.2202C33.3714 27.6837 32.7596 27.917 32.0103 27.917C31.3505 27.917 30.7932 27.7572 30.3416 27.4344C29.89 27.1115 29.5505 26.6544 29.3166 26.0599C29.0828 25.4654 28.9675 24.7622 28.9675 23.9503C28.9675 23.407 29.0252 22.8923 29.1373 22.4065C29.2494 21.9207 29.4255 21.4955 29.6658 21.128C29.906 20.7636 30.2231 20.4727 30.6138 20.2618C31.0046 20.0508 31.485 19.9453 32.0518 19.9453C32.5611 19.9453 32.9934 20.0476 33.349 20.249C33.7045 20.4535 33.9927 20.7252 34.2105 21.0704C34.4283 21.4156 34.5725 21.8056 34.6461 22.2403L34.6429 22.2371Z" fill="#FFFDFA"/>
<path d="M38.0445 19.942C38.9829 19.942 39.71 20.2936 40.2288 20.9904C40.7477 21.6904 41.0072 22.6717 41.0072 23.9311C41.0072 25.1904 40.7477 26.1717 40.2288 26.8685C39.71 27.5653 38.9797 27.9137 38.0445 27.9137C37.1092 27.9137 36.379 27.5653 35.8601 26.8685C35.3412 26.1717 35.0818 25.1936 35.0818 23.9311C35.0818 22.6685 35.3412 21.6904 35.8601 20.9904C36.379 20.2904 37.1092 19.942 38.0445 19.942ZM38.0445 20.8338C37.4487 20.8338 36.9811 21.1087 36.6448 21.6553C36.3085 22.2018 36.1387 22.9626 36.1387 23.9343C36.1387 24.9059 36.3085 25.6539 36.6448 26.2005C36.9843 26.747 37.4487 27.0219 38.0445 27.0219C38.6402 27.0219 39.1174 26.747 39.4505 26.2005C39.7836 25.6539 39.9534 24.8964 39.9534 23.9343C39.9534 22.9722 39.7868 22.2018 39.4505 21.6553C39.1174 21.1087 38.6466 20.8338 38.0445 20.8338Z" fill="#FFFDFA"/>
<path d="M44.2672 27.7188H41.8042V20.1179H44.2672C44.9142 20.1179 45.4523 20.2809 45.8815 20.607C46.3107 20.933 46.631 21.3805 46.8456 21.9494C47.0602 22.5184 47.1658 23.1736 47.1658 23.912C47.1658 24.6503 47.0569 25.3088 46.8456 25.8809C46.631 26.4531 46.3107 26.9038 45.8815 27.2298C45.4523 27.5558 44.9142 27.7188 44.2672 27.7188ZM42.8163 21.0065V26.8239H44.0911C44.8021 26.8239 45.3178 26.565 45.6317 26.0471C45.9487 25.5293 46.1057 24.8197 46.1057 23.9216C46.1057 23.0234 45.9487 22.3042 45.6317 21.7832C45.3146 21.2654 44.8021 21.0065 44.0911 21.0065H42.8163Z" fill="#FFFDFA"/>
<path d="M48.5176 27.7188V26.8718H50.1318V20.965H48.5176V20.1179H52.7774V20.965H51.1536V26.8718H52.7774V27.7188H48.5176Z" fill="#FFFDFA"/>
<path d="M58.5432 20.1146H59.4817V27.7155H58.3478L55.3499 21.6361H55.3403V27.7155H54.4019V20.1146H55.5037L58.5336 26.2484H58.5432V20.1146Z" fill="#FFFDFA"/>
<path d="M63.414 23.6945H66.0404V27.7187H65.3005L65.214 26.6735C65.0314 27.1018 64.7752 27.4151 64.4453 27.6132C64.1154 27.8114 63.7343 27.9137 63.3051 27.9137C62.6933 27.9137 62.1681 27.7571 61.7261 27.447C61.2841 27.137 60.9381 26.6863 60.6947 26.0982C60.4513 25.5101 60.3296 24.8005 60.3296 23.9662C60.3296 23.132 60.4577 22.3744 60.7171 21.7735C60.9734 21.1758 61.3353 20.7219 61.7965 20.4087C62.2577 20.0954 62.7958 19.942 63.414 19.942C64.0834 19.942 64.6503 20.121 65.1211 20.4758C65.5888 20.8306 65.9026 21.4123 66.0628 22.2146H65.0282C64.9258 21.6936 64.7304 21.3324 64.4453 21.1311C64.1571 20.9329 63.8143 20.8306 63.414 20.8306C62.7446 20.8306 62.2417 21.1087 61.899 21.6617C61.5563 22.2178 61.3865 22.9658 61.3865 23.9087C61.3865 24.9667 61.5659 25.7498 61.9214 26.258C62.277 26.7662 62.7446 27.0187 63.3275 27.0187C63.7503 27.0187 64.093 26.9196 64.362 26.7247C64.6311 26.5297 64.8297 26.2612 64.9546 25.9256C65.0827 25.5868 65.1468 25.2128 65.1468 24.8005V24.5831H63.414V23.6913V23.6945Z" fill="#FFFDFA"/>
<path d="M212.977 22.5311H181.015C179.306 22.5311 177.921 23.9135 177.921 25.6188V33.5553C177.921 35.2605 179.306 36.6429 181.015 36.6429H212.977C214.685 36.6429 216.071 35.2605 216.071 33.5553V25.6188C216.071 23.9135 214.685 22.5311 212.977 22.5311Z" fill="#00CF00"/>
<path d="M186.935 31.0493V25.8297H187.947V31.19C187.947 31.7781 187.825 32.2479 187.582 32.6027C187.338 32.9575 187.015 33.2164 186.611 33.3795C186.208 33.5425 185.766 33.6256 185.288 33.6256C184.811 33.6256 184.347 33.5425 183.946 33.3763C183.546 33.21 183.229 32.9479 182.998 32.5868C182.764 32.2288 182.649 31.7621 182.649 31.19V25.8297H183.661V31.0493C183.661 31.4904 183.735 31.8356 183.885 32.0785C184.036 32.3215 184.231 32.4909 184.478 32.59C184.725 32.689 184.994 32.737 185.285 32.737C185.577 32.737 185.855 32.6858 186.102 32.5836C186.349 32.4813 186.55 32.3087 186.701 32.0658C186.855 31.8229 186.928 31.4841 186.928 31.0493H186.935Z" fill="#222222"/>
<path d="M189.039 33.4306V32.5836H190.653V26.6767H189.039V25.8297H193.298V26.6767H191.675V32.5836H193.298V33.4306H189.039Z" fill="#222222"/>
<path d="M194.726 34.3L198.4 24.7942H199.326L195.652 34.3H194.726Z" fill="#222222"/>
<path d="M204.524 31.0493V25.8297H205.536V31.19C205.536 31.7781 205.415 32.2479 205.171 32.6027C204.928 32.9575 204.604 33.2164 204.201 33.3795C203.797 33.5425 203.355 33.6256 202.878 33.6256C202.401 33.6256 201.936 33.5425 201.536 33.3763C201.136 33.21 200.819 32.9479 200.588 32.5868C200.354 32.2288 200.239 31.7621 200.239 31.19V25.8297H201.251V31.0493C201.251 31.4904 201.325 31.8356 201.475 32.0785C201.626 32.3215 201.821 32.4909 202.068 32.59C202.314 32.689 202.583 32.737 202.875 32.737C203.166 32.737 203.445 32.6858 203.692 32.5836C203.938 32.4813 204.14 32.3087 204.29 32.0658C204.444 31.8229 204.518 31.4841 204.518 31.0493H204.524Z" fill="#222222"/>
<path d="M210.662 33.4306L208.743 30.3525L206.825 33.4306H205.659L208.208 29.5375L205.832 25.8297H207.02L208.798 28.6904L210.562 25.8297H211.719L209.332 29.5055L211.85 33.4306H210.662Z" fill="#222222"/>
<path d="M132.202 40.9132H93.2744C91.5657 40.9132 90.1804 42.2956 90.1804 44.0009V51.9374C90.1804 53.6427 91.5657 55.0251 93.2744 55.0251H132.202C133.911 55.0251 135.296 53.6427 135.296 51.9374V44.0009C135.296 42.2956 133.911 40.9132 132.202 40.9132Z" fill="#CBFD00"/>
<path d="M96.5546 51.7684H94.0916V44.1675H96.5546C97.2016 44.1675 97.7397 44.3305 98.1688 44.6565C98.598 44.9825 98.9183 45.43 99.1329 45.999C99.3475 46.5679 99.4532 47.2232 99.4532 47.9615C99.4532 48.6999 99.3443 49.3583 99.1329 49.9305C98.9183 50.5026 98.598 50.9533 98.1688 51.2794C97.7397 51.6054 97.2016 51.7684 96.5546 51.7684ZM95.1069 45.0593V50.8766H96.3816C97.0927 50.8766 97.6083 50.6177 97.9222 50.0999C98.2393 49.5821 98.3962 48.8725 98.3962 47.9743C98.3962 47.0762 98.2393 46.357 97.9222 45.836C97.6051 45.3182 97.0927 45.0593 96.3816 45.0593H95.1069Z" fill="#222222"/>
<path d="M105.078 48.3223H101.808V50.8794H105.436V51.7712H100.792V44.1703H105.238V45.0621H101.804V47.4338H105.075V48.3255L105.078 48.3223Z" fill="#222222"/>
<path d="M111.878 46.3634H110.897C110.881 45.9287 110.744 45.5675 110.484 45.2798C110.222 44.9921 109.828 44.8515 109.296 44.8515C108.764 44.8515 108.374 44.9666 108.101 45.1999C107.829 45.4332 107.691 45.7177 107.691 46.0597C107.691 46.667 108.037 47.0538 108.726 47.2136L110.286 47.5716C110.881 47.709 111.333 47.9583 111.637 48.3227C111.942 48.6839 112.095 49.1122 112.095 49.6045C112.095 50.0967 111.98 50.5314 111.753 50.883C111.525 51.2346 111.208 51.5031 110.805 51.6885C110.401 51.8739 109.93 51.9666 109.392 51.9666C108.447 51.9666 107.727 51.7332 107.23 51.2666C106.734 50.7999 106.477 50.1574 106.461 49.3456H107.442C107.448 49.8538 107.621 50.2661 107.954 50.5857C108.287 50.9054 108.774 51.0652 109.414 51.0652C109.988 51.0652 110.407 50.9405 110.673 50.6944C110.939 50.4483 111.07 50.1319 111.07 49.7483C111.07 49.4063 110.978 49.1378 110.792 48.9428C110.606 48.7478 110.324 48.6072 109.946 48.5177L108.367 48.1469C107.816 48.0159 107.393 47.7825 107.102 47.4469C106.811 47.1113 106.666 46.6798 106.666 46.1588C106.666 45.7305 106.775 45.3565 106.993 45.0337C107.211 44.7109 107.518 44.4583 107.916 44.273C108.313 44.0876 108.784 43.9949 109.328 43.9949C109.873 43.9949 110.315 44.094 110.696 44.2889C111.077 44.4839 111.368 44.7524 111.573 45.088C111.778 45.4236 111.878 45.804 111.878 46.2259V46.3666V46.3634Z" fill="#222222"/>
<path d="M113.405 51.7684V50.9214H115.019V45.0145H113.405V44.1675H117.665V45.0145H116.041V50.9214H117.665V51.7684H113.405Z" fill="#222222"/>
<path d="M122.002 47.7438H124.628V51.768H123.888L123.802 50.7228C123.619 51.1511 123.363 51.4644 123.033 51.6626C122.703 51.8607 122.322 51.963 121.893 51.963C121.281 51.963 120.756 51.8064 120.314 51.4964C119.872 51.1863 119.526 50.7356 119.283 50.1475C119.039 49.5594 118.917 48.8498 118.917 48.0155C118.917 47.1813 119.046 46.4238 119.305 45.8228C119.561 45.2251 119.923 44.7712 120.384 44.458C120.846 44.1448 121.384 43.9913 122.002 43.9913C122.671 43.9913 123.238 44.1703 123.709 44.5251C124.177 44.8799 124.491 45.4617 124.651 46.2639H123.616C123.514 45.7429 123.318 45.3817 123.033 45.1804C122.745 44.9822 122.402 44.8799 122.002 44.8799C121.332 44.8799 120.83 45.158 120.487 45.711C120.144 46.2671 119.974 47.0151 119.974 47.958C119.974 49.016 120.154 49.7991 120.509 50.3073C120.865 50.8155 121.332 51.068 121.915 51.068C122.338 51.068 122.681 50.969 122.95 50.774C123.219 50.579 123.418 50.3105 123.542 49.9749C123.671 49.6361 123.735 49.2621 123.735 48.8498V48.6324H122.002V47.7406V47.7438Z" fill="#222222"/>
<path d="M129.73 44.1675H130.668V51.7684H129.535L126.537 45.6889H126.527V51.7684H125.589V44.1675H126.69L129.72 50.3013H129.73V44.1675Z" fill="#222222"/>
</g>
<defs>
<clipPath id="clip0_2023_984">
<rect width="221" height="70" fill="white"/>
</clipPath>
</defs>
</svg>
