<svg width="571" height="75" viewBox="0 0 571 75" fill="none" xmlns="http://www.w3.org/2000/svg">
<g clip-path="url(#clip0_2023_968)">
<path d="M63.0653 73.6137V19.3745H69.9223L71.718 25.5568C72.5342 24.073 73.5954 22.8091 74.9015 21.765C76.2077 20.7208 77.677 19.924 79.3098 19.3745C80.9423 18.8249 82.7111 18.5502 84.6157 18.5502C87.8264 18.5502 90.7654 19.402 93.4319 21.1055C96.0984 22.8091 98.2208 25.2545 99.799 28.4418C101.377 31.629 102.166 35.4484 102.166 39.8997C102.166 44.3509 101.377 48.1978 99.799 51.44C98.2208 54.6272 96.0984 57.0728 93.4319 58.7762C90.7654 60.425 87.8264 61.2494 84.6157 61.2494C82.7111 61.2494 80.9423 60.9744 79.3098 60.425C77.677 59.8753 76.2077 59.0784 74.9015 58.0344C73.5954 56.9353 72.5342 55.644 71.718 54.1603V73.6137H63.0653ZM82.0852 54.0778C85.2416 54.0778 87.7993 52.8412 89.7585 50.3684C91.7719 47.8953 92.7788 44.4059 92.7788 39.8997C92.7788 35.3934 91.7719 31.904 89.7585 29.431C87.7993 26.9581 85.2416 25.7216 82.0852 25.7216C78.9288 25.7216 76.3437 26.9031 74.3302 29.2661C72.371 31.629 71.3916 35.1462 71.3916 39.8172C71.3916 44.4334 72.371 47.9778 74.3302 50.4509C76.3437 52.8687 78.9288 54.0778 82.0852 54.0778Z" fill="#222222"/>
<path d="M126.744 61.2494C122.445 61.2494 118.744 60.3425 115.642 58.529C112.594 56.6606 110.227 54.1328 108.54 50.9453C106.907 47.7031 106.091 43.9937 106.091 39.8172C106.091 35.4759 106.989 31.7115 108.785 28.5243C110.635 25.337 113.084 22.8915 116.132 21.188C119.234 19.4294 122.689 18.5502 126.499 18.5502C129.71 18.5502 132.567 19.1821 135.07 20.4461C137.628 21.71 139.75 23.441 141.437 25.6392C143.124 27.8374 144.349 30.3652 145.111 33.2228C145.873 36.0253 146.145 39.0203 145.927 42.2078H114.907C115.179 44.4609 115.724 46.3569 116.54 47.8956C117.356 49.434 118.308 50.6431 119.397 51.5225C120.54 52.4015 121.737 53.0337 122.989 53.4184C124.295 53.8031 125.519 53.9953 126.662 53.9953C128.785 53.9953 130.58 53.6656 132.05 53.0062C133.573 52.2919 134.771 51.385 135.642 50.2859L143.315 52.7587C141.682 55.3965 139.424 57.485 136.54 59.0237C133.655 60.5075 130.39 61.2494 126.744 61.2494ZM114.989 35.9431H137.274C137.22 34.0747 136.73 32.3709 135.805 30.8323C134.934 29.2387 133.709 27.9747 132.131 27.0405C130.553 26.0514 128.703 25.5568 126.58 25.5568C124.893 25.5568 123.206 25.8865 121.519 26.5459C119.887 27.2054 118.472 28.3045 117.274 29.8431C116.132 31.3269 115.37 33.3603 114.989 35.9431Z" fill="#222222"/>
<path d="M151.874 60.26V19.3745H158.813L160.527 25.3095C161.234 24.1005 162.159 23.0014 163.302 22.0122C164.5 20.9681 165.915 20.1438 167.547 19.5393C169.234 18.8799 171.193 18.5502 173.425 18.5502C176.744 18.5502 179.384 19.2096 181.343 20.5285C183.302 21.8474 184.717 23.7158 185.588 26.1338C186.458 28.5517 186.894 31.4094 186.894 34.7065V60.26H178.159V37.0972C178.159 35.0637 177.996 33.1953 177.669 31.4919C177.343 29.7333 176.608 28.3319 175.465 27.2878C174.377 26.2437 172.608 25.7216 170.159 25.7216C167.112 25.7216 164.744 26.8207 163.057 29.0189C161.37 31.162 160.527 34.3219 160.527 38.4984V60.26H151.874Z" fill="#222222"/>
<path d="M257.419 61.2494C253.337 61.2494 249.827 60.3425 246.888 58.529C244.004 56.6606 241.773 54.1328 240.195 50.9453C238.671 47.7031 237.909 43.9937 237.909 39.8172C237.909 35.6956 238.725 32.0412 240.358 28.854C242.045 25.6117 244.385 23.0839 247.378 21.2704C250.372 19.4569 253.881 18.5502 257.909 18.5502C260.303 18.5502 262.534 18.9623 264.603 19.7866C266.725 20.556 268.602 21.655 270.235 23.0839C271.868 24.5126 273.174 26.2437 274.153 28.277L266.562 31.0796C265.745 29.376 264.548 28.0846 262.97 27.2054C261.446 26.2712 259.732 25.804 257.827 25.804C255.977 25.804 254.208 26.2986 252.521 27.2878C250.889 28.277 249.555 29.7882 248.521 31.8215C247.541 33.8547 247.052 36.52 247.052 39.8172C247.052 43.0597 247.569 45.7522 248.603 47.8956C249.637 49.9837 250.97 51.5225 252.603 52.5115C254.235 53.5006 255.977 53.9953 257.827 53.9953C259.895 53.9953 261.664 53.5556 263.133 52.6766C264.657 51.7422 265.827 50.5331 266.643 49.0494L274.235 51.8522C273.092 53.8306 271.65 55.534 269.908 56.9628C268.167 58.3365 266.235 59.4081 264.113 60.1775C261.99 60.8919 259.759 61.2494 257.419 61.2494Z" fill="#222222"/>
<path d="M295.9 61.2494C293.396 61.2494 290.948 60.8372 288.553 60.0128C286.158 59.1884 284.009 57.8972 282.104 56.1384C280.199 54.38 278.648 52.1544 277.451 49.4615C276.309 46.769 275.737 43.5815 275.737 39.8997C275.737 36.2178 276.309 33.0306 277.451 30.3377C278.648 27.645 280.199 25.4194 282.104 23.6609C284.009 21.9023 286.158 20.6109 288.553 19.7866C290.948 18.9623 293.396 18.5502 295.9 18.5502C298.403 18.5502 300.825 18.9623 303.165 19.7866C305.56 20.6109 307.709 21.9023 309.614 23.6609C311.519 25.4194 313.042 27.645 314.184 30.3377C315.382 33.0306 315.982 36.2178 315.982 39.8997C315.982 43.5815 315.382 46.769 314.184 49.4615C313.042 52.1544 311.519 54.38 309.614 56.1384C307.709 57.8972 305.56 59.1884 303.165 60.0128C300.825 60.8372 298.403 61.2494 295.9 61.2494ZM295.9 53.9953C297.805 53.9953 299.573 53.5281 301.206 52.594C302.893 51.605 304.254 50.0662 305.288 47.9778C306.321 45.8897 306.838 43.1969 306.838 39.8997C306.838 36.6025 306.321 33.9372 305.288 31.904C304.254 29.8157 302.893 28.277 301.206 27.2878C299.573 26.2986 297.805 25.804 295.9 25.804C293.995 25.804 292.199 26.2986 290.512 27.2878C288.825 28.277 287.465 29.8157 286.431 31.904C285.397 33.9372 284.88 36.6025 284.88 39.8997C284.88 43.1969 285.397 45.8897 286.431 47.9778C287.465 50.0662 288.825 51.605 290.512 52.594C292.199 53.5281 293.995 53.9953 295.9 53.9953Z" fill="#222222"/>
<path d="M322.397 60.26V19.3745H329.336L331.049 25.3095C331.757 24.1005 332.681 23.0014 333.826 22.0122C335.021 20.9681 336.438 20.1438 338.069 19.5393C339.758 18.8799 341.717 18.5502 343.948 18.5502C347.268 18.5502 349.908 19.2096 351.867 20.5285C353.823 21.8474 355.24 23.7158 356.111 26.1338C356.981 28.5517 357.418 31.4094 357.418 34.7065V60.26H348.681V37.0972C348.681 35.0637 348.519 33.1953 348.191 31.4919C347.867 29.7333 347.131 28.3319 345.989 27.2878C344.9 26.2437 343.13 25.7216 340.681 25.7216C337.636 25.7216 335.268 26.8207 333.579 29.0189C331.895 31.162 331.049 34.3219 331.049 38.4984V60.26H322.397Z" fill="#222222"/>
<path d="M383.831 61.2494C381.328 61.2494 378.879 60.8372 376.486 60.0128C374.089 59.1884 371.94 57.8972 370.036 56.1384C368.133 54.38 366.579 52.1544 365.384 49.4615C364.242 46.769 363.668 43.5815 363.668 39.8997C363.668 36.2178 364.242 33.0306 365.384 30.3377C366.579 27.645 368.133 25.4194 370.036 23.6609C371.94 21.9023 374.089 20.6109 376.486 19.7866C378.879 18.9623 381.328 18.5502 383.831 18.5502C386.336 18.5502 388.758 18.9623 391.098 19.7866C393.491 20.6109 395.641 21.9023 397.547 23.6609C399.451 25.4194 400.973 27.645 402.118 30.3377C403.313 33.0306 403.912 36.2178 403.912 39.8997C403.912 43.5815 403.313 46.769 402.118 49.4615C400.973 52.1544 399.451 54.38 397.547 56.1384C395.641 57.8972 393.491 59.1884 391.098 60.0128C388.758 60.8372 386.336 61.2494 383.831 61.2494ZM383.831 53.9953C385.737 53.9953 387.506 53.5281 389.138 52.594C390.826 51.605 392.187 50.0662 393.219 47.9778C394.252 45.8897 394.77 43.1969 394.77 39.8997C394.77 36.6025 394.252 33.9372 393.219 31.904C392.187 29.8157 390.826 28.277 389.138 27.2878C387.506 26.2986 385.737 25.804 383.831 25.804C381.927 25.804 380.13 26.2986 378.445 27.2878C376.757 28.277 375.397 29.8157 374.364 31.904C373.328 33.9372 372.813 36.6025 372.813 39.8997C372.813 43.1969 373.328 45.8897 374.364 47.9778C375.397 50.0662 376.757 51.605 378.445 52.594C380.13 53.5281 381.927 53.9953 383.831 53.9953Z" fill="#222222"/>
<path d="M410.328 60.26V19.3745H417.267L418.983 25.3095C419.688 24.1005 420.587 23.0014 421.676 22.0122C422.818 20.9681 424.178 20.1438 425.757 19.5393C427.336 18.8799 429.13 18.5502 431.146 18.5502C434.3 18.5502 436.831 19.1821 438.737 20.4461C440.64 21.655 442.057 23.3861 442.981 25.6392C444.559 23.1663 446.519 21.3803 448.859 20.2812C451.252 19.1272 453.864 18.5502 456.694 18.5502C459.961 18.5502 462.544 19.2096 464.451 20.5285C466.354 21.8474 467.743 23.7158 468.613 26.1338C469.484 28.5517 469.921 31.4094 469.921 34.7065V60.26H461.265V37.0972C461.265 35.0637 461.075 33.1953 460.694 31.4919C460.37 29.7333 459.633 28.3319 458.491 27.2878C457.402 26.2437 455.689 25.7216 453.349 25.7216C450.572 25.7216 448.397 26.7932 446.818 28.9364C445.24 31.0247 444.45 34.1297 444.45 38.2509V60.26H435.798V37.0972C435.798 35.0637 435.608 33.1953 435.227 31.4919C434.899 29.7333 434.191 28.3319 433.105 27.2878C432.016 26.2437 430.3 25.7216 427.96 25.7216C426.11 25.7216 424.506 26.2162 423.145 27.2054C421.785 28.1396 420.749 29.5684 420.044 31.4919C419.336 33.3603 418.983 35.6409 418.983 38.3334V60.26H410.328Z" fill="#222222"/>
<path d="M481.219 60.26V26.2162H475.178V19.3745H489.952V60.26H481.219Z" fill="#222222"/>
<path d="M516.034 61.2494C511.953 61.2494 508.443 60.3425 505.504 58.529C502.617 56.6606 500.386 54.1328 498.811 50.9453C497.285 47.7031 496.524 43.9937 496.524 39.8172C496.524 35.6956 497.341 32.0412 498.973 28.854C500.661 25.6117 502.998 23.0839 505.993 21.2704C508.986 19.4569 512.496 18.5502 516.524 18.5502C518.917 18.5502 521.148 18.9623 523.217 19.7866C525.339 20.556 527.217 21.655 528.849 23.0839C530.481 24.5126 531.788 26.2437 532.768 28.277L525.177 31.0796C524.359 29.376 523.161 28.0846 521.585 27.2054C520.059 26.2712 518.346 25.804 516.44 25.804C514.59 25.804 512.824 26.2986 511.136 27.2878C509.504 28.277 508.168 29.7882 507.135 31.8215C506.156 33.8547 505.666 36.52 505.666 39.8172C505.666 43.0597 506.184 45.7522 507.217 47.8956C508.252 49.9837 509.585 51.5225 511.217 52.5115C512.849 53.5006 514.59 53.9953 516.44 53.9953C518.509 53.9953 520.278 53.5556 521.747 52.6766C523.27 51.7422 524.44 50.5331 525.258 49.0494L532.849 51.8522C531.707 53.8306 530.266 55.534 528.521 56.9628C526.78 58.3365 524.849 59.4081 522.727 60.1775C520.605 60.8919 518.374 61.2494 516.034 61.2494Z" fill="#222222"/>
<path d="M552.778 61.2494C550.163 61.2494 547.633 60.8647 545.186 60.0953C542.79 59.326 540.668 58.1994 538.818 56.7157C537.021 55.1769 535.66 53.2535 534.737 50.9453L542.656 48.0603C543.199 50.0938 544.478 51.6597 546.491 52.7588C548.503 53.8578 550.628 54.4075 552.859 54.4075C555.308 54.4075 557.402 53.9128 559.143 52.9238C560.884 51.8797 561.755 50.5057 561.755 48.8022C561.755 47.3185 561.131 46.1644 559.879 45.34C558.628 44.516 556.613 43.8288 553.839 43.2794L548.369 42.1253C545.973 41.6306 543.826 40.9163 541.919 39.9822C540.069 39.0478 538.6 37.8116 537.511 36.2728C536.478 34.7341 535.96 32.8107 535.96 30.5027C535.96 27.9748 536.721 25.8041 538.247 23.9906C539.77 22.1771 541.782 20.8033 544.288 19.8691C546.846 18.9349 549.592 18.4678 552.531 18.4678C556.07 18.4678 559.361 19.1822 562.41 20.611C565.455 21.9848 567.661 24.2104 569.022 27.2878L561.265 30.1729C560.56 28.5793 559.361 27.3703 557.673 26.546C556.042 25.7217 554.191 25.3095 552.123 25.3095C549.839 25.3095 547.988 25.7491 546.572 26.6284C545.158 27.5076 544.45 28.6892 544.45 30.1729C544.45 31.4919 544.94 32.5085 545.92 33.2228C546.952 33.8822 548.559 34.4594 550.737 34.9538L556.288 36.1078C559.224 36.7125 561.73 37.4819 563.795 38.416C565.92 39.3503 567.524 40.6141 568.613 42.2078C569.702 43.7466 570.245 45.7797 570.245 48.3075C570.245 51.0003 569.455 53.336 567.88 55.3144C566.301 57.2375 564.204 58.7213 561.592 59.7657C558.981 60.7547 556.042 61.2494 552.778 61.2494Z" fill="#222222"/>
<path d="M479.905 1.38647H490.015V11.5939H479.905V1.38647Z" fill="#222222"/>
<path d="M28.2926 4.13318C12.6662 4.13318 0 16.9161 0 32.6875C0 48.4588 12.6662 61.2472 28.2926 61.2472C43.919 61.2472 56.5958 48.4644 56.5958 32.6875C56.5958 16.9107 43.9296 4.13318 28.2926 4.13318ZM44.9917 49.5494H11.5989V15.8415H44.9864V49.555L44.9917 49.5494Z" fill="#222222"/>
<path d="M205.304 52.011V37.0094H197.055V60.2653H234.586V52.011H205.304ZM234.265 13.3789V5.12427H197.055V28.1986H205.304V13.3789H234.265ZM227.419 28.1933H205.304V37.0041H227.419V28.1933Z" fill="#222222"/>
</g>
<defs>
<clipPath id="clip0_2023_968">
<rect width="571" height="75" fill="white"/>
</clipPath>
</defs>
</svg>
