<svg width="286" height="70" viewBox="0 0 286 70" fill="none" xmlns="http://www.w3.org/2000/svg">
<g clip-path="url(#clip0_2023_951)">
<mask id="mask0_2023_951" style="mask-type:alpha" maskUnits="userSpaceOnUse" x="0" y="1" width="10" height="11">
<path fill-rule="evenodd" clip-rule="evenodd" d="M0 1.61047H9.36643V11.0702H0V1.61047Z" fill="black"/>
</mask>
<g mask="url(#mask0_2023_951)">
<path fill-rule="evenodd" clip-rule="evenodd" d="M4.68347 1.61047C2.00611 1.61047 0 3.69509 0 6.30469C0 8.98559 2.00611 11.0702 4.68347 11.0702C7.36085 11.0702 9.36693 8.98559 9.36693 6.30469C9.36693 3.69509 7.36085 1.61047 4.68347 1.61047Z" fill="#222222"/>
</g>
<path fill-rule="evenodd" clip-rule="evenodd" d="M78.3311 48.2625C71.5315 48.2625 66.3554 42.6671 66.3554 35.1074C66.3554 27.5475 71.5315 21.8776 78.3311 21.8776C85.1351 21.8776 90.3117 27.5475 90.3117 35.1074C90.3117 42.6671 85.1351 48.2625 78.3311 48.2625ZM97.7713 0H90.2938V22.7541C87.2407 18.4022 82.3394 15.6916 76.49 15.6916C66.1126 15.6916 58.5833 23.9975 58.5833 35.1133C58.5833 45.5331 65.2122 53.4908 74.4651 54.4359C75.1151 54.4856 75.7628 54.5352 76.4128 54.5352H76.49C76.9133 54.5352 77.338 54.5104 77.7656 54.4856C77.9908 54.4607 78.216 54.4359 78.4155 54.411H78.4655C78.9138 54.361 79.3664 54.2865 79.8162 54.1871C80.3639 54.0877 80.8915 53.9383 81.4142 53.7892C81.9419 53.615 82.4645 53.4411 82.965 53.2171C83.4169 53.0184 83.8674 52.8193 84.315 52.5954C84.3679 52.5705 84.3922 52.5457 84.4422 52.5209C85.3903 51.9987 86.2905 51.4019 87.1185 50.7055C87.541 50.3574 87.9436 49.9844 88.3433 49.6114C88.6915 49.2632 89.044 48.8902 89.3414 48.4924C89.6939 48.0945 90.0192 47.6718 90.2938 47.2488C91.0917 46.1049 91.7445 44.8616 92.2193 43.5187L92.7377 45.0158L92.7348 45.0208L95.7678 53.799H103.227L97.7713 38.8261V0Z" fill="#222222"/>
<path fill-rule="evenodd" clip-rule="evenodd" d="M111.626 54.5485H118.601V16.7933H111.626V54.5485Z" fill="#222222"/>
<path fill-rule="evenodd" clip-rule="evenodd" d="M115.109 1.39526C112.322 1.39526 110.228 3.5523 110.228 6.25254C110.228 9.02664 112.322 11.1836 115.109 11.1836C117.9 11.1836 119.994 9.02664 119.994 6.25254C119.994 3.5523 117.9 1.39526 115.109 1.39526Z" fill="#222222"/>
<path fill-rule="evenodd" clip-rule="evenodd" d="M193.917 49.6377C187.189 49.6377 182.055 43.9923 182.055 36.366C182.055 28.7418 187.189 23.0213 193.917 23.0213C200.644 23.0213 205.781 28.7418 205.781 36.366C205.781 43.9923 200.644 49.6377 193.917 49.6377ZM193.919 16.7933C182.708 16.7933 174.387 25.1522 174.387 36.3702C174.387 47.5881 182.708 55.9468 193.919 55.9468C205.133 55.9468 213.451 47.5881 213.451 36.3702C213.451 25.1522 205.133 16.7933 193.919 16.7933Z" fill="#222222"/>
<path fill-rule="evenodd" clip-rule="evenodd" d="M223.92 44.7339C221.171 44.7339 219.037 46.8167 219.037 49.5927C219.037 52.3709 221.171 54.5225 223.92 54.5225C226.67 54.5225 228.804 52.3709 228.804 49.5927C228.804 46.8167 226.67 44.7339 223.92 44.7339Z" fill="#222222"/>
<path fill-rule="evenodd" clip-rule="evenodd" d="M250.038 50.1426C246.079 50.1426 243.269 48.6027 243.269 44.7907C243.269 41.3449 246.006 38.8519 253.134 38.8519C255.941 38.8519 259.112 39.2181 261.92 39.7322C261.272 44.6428 256.734 50.1426 250.038 50.1426ZM253.212 16.7933C242.843 16.7933 237.444 22.2932 237.081 29.9901H244.429C244.717 25.2977 247.956 22.7321 253.212 22.7321C258.543 22.7321 261.927 26.03 261.927 31.091V34.1682C258.471 33.6565 255.444 33.363 252.996 33.363C242.052 33.363 235.788 37.6891 235.788 45.2406C235.788 52.5011 241.333 55.9468 248.03 55.9468C254.005 55.9468 258.828 53.3059 261.927 49.055V55.2121H269.272V31.5297C269.272 22.2932 263.225 16.7933 253.212 16.7933Z" fill="#222222"/>
<path fill-rule="evenodd" clip-rule="evenodd" d="M281.117 11.1836C283.909 11.1836 286 9.02664 286 6.24991C286 3.5523 283.909 1.39526 281.117 1.39526C278.326 1.39526 276.234 3.5523 276.234 6.24991C276.234 9.02664 278.326 11.1836 281.117 11.1836Z" fill="#222222"/>
<path fill-rule="evenodd" clip-rule="evenodd" d="M277.637 54.5485H284.612V16.7933H277.637V54.5485Z" fill="#222222"/>
<path fill-rule="evenodd" clip-rule="evenodd" d="M16.7363 16.7933V24.2855V54.5485H24.0999V24.2855H44.2512V54.5485H51.6149V24.2855V22.3007V16.7933H24.0999H16.7363Z" fill="#222222"/>
<path fill-rule="evenodd" clip-rule="evenodd" d="M157.283 35.3783C157.283 42.4846 152.105 47.7588 145.3 47.7588C138.496 47.7588 133.293 42.4846 133.293 35.3783C133.293 28.2968 138.496 22.9484 145.3 22.9484C152.105 22.9484 157.283 28.2968 157.283 35.3783ZM170.215 17.5188H164.77V17.5114L164.765 17.5188H162.758L159.366 27.2721V27.2672C158.866 25.9549 158.165 24.7168 157.339 23.6026C157.265 23.4788 157.189 23.3798 157.115 23.3055C156.89 23.0083 156.664 22.736 156.389 22.4636C156.214 22.216 155.987 22.0179 155.763 21.7951C155.664 21.6465 155.511 21.4979 155.361 21.3989C155.086 21.1265 154.788 20.8541 154.488 20.6065C154.413 20.557 154.363 20.5075 154.288 20.458C153.91 20.136 153.513 19.8389 153.112 19.5913C152.66 19.2942 152.211 19.0218 151.712 18.7742C151.286 18.5266 150.836 18.3285 150.385 18.1304C149.883 17.9323 149.385 17.7343 148.859 17.5857C148.482 17.4619 148.084 17.3628 147.684 17.2638C147.634 17.2638 147.556 17.239 147.484 17.2143C147.309 17.1895 147.131 17.14 146.956 17.1153C146.531 17.0409 146.058 16.9667 145.608 16.9171C144.907 16.8428 144.207 16.7933 143.479 16.7933C133.1 16.7933 125.57 24.7663 125.57 35.3887C125.57 46.0361 133.1 54.0091 143.331 54.0091C149.108 54.0091 154.088 51.409 157.289 47.0512V52.5481C157.289 59.3574 152.336 63.8391 145.155 63.8391C139.154 63.8391 134.701 60.2983 133.975 55.4451H126.446C127.472 63.9133 135.274 69.9302 145.155 69.9302C156.412 69.9302 164.77 62.5515 164.77 51.4586V32.3975L170.215 17.5188Z" fill="#222222"/>
<path fill-rule="evenodd" clip-rule="evenodd" d="M1.39087 54.5485H8.36659V16.7933H1.39087V54.5485Z" fill="#222222"/>
</g>
<defs>
<clipPath id="clip0_2023_951">
<rect width="286" height="70" fill="white"/>
</clipPath>
</defs>
</svg>
